<?xml version="1.0" encoding="UTF-8" standalone="no"?>
<!-- Created with Inkscape (http://www.inkscape.org/) -->

<svg
   width="210mm"
   height="210mm"
   viewBox="0 0 210 210"
   version="1.1"
   id="svg5"
   inkscape:version="1.1.1 (3bf5ae0d25, 2021-09-20)"
   sodipodi:docname="black.svg"
   inkscape:export-filename="/home/snakebite/Documents/alinanana_alt_colorful_strong.png"
   inkscape:export-xdpi="96"
   inkscape:export-ydpi="96"
   xmlns:inkscape="http://www.inkscape.org/namespaces/inkscape"
   xmlns:sodipodi="http://sodipodi.sourceforge.net/DTD/sodipodi-0.dtd"
   xmlns="http://www.w3.org/2000/svg"
   xmlns:svg="http://www.w3.org/2000/svg">
  <sodipodi:namedview
     id="namedview7"
     pagecolor="#404040"
     bordercolor="#ffffff"
     borderopacity="1"
     inkscape:pageshadow="0"
     inkscape:pageopacity="0"
     inkscape:pagecheckerboard="false"
     inkscape:document-units="mm"
     showgrid="false"
     inkscape:zoom="0.70710678"
     inkscape:cx="395.27269"
     inkscape:cy="359.21025"
     inkscape:window-width="1364"
     inkscape:window-height="766"
     inkscape:window-x="0"
     inkscape:window-y="0"
     inkscape:window-maximized="1"
     inkscape:current-layer="layer9"
     showguides="false"
     height="296mm"
     showborder="true"
     inkscape:showpageshadow="true">
    <inkscape:grid
       type="xygrid"
       id="grid28304" />
  </sodipodi:namedview>
  <defs
     id="defs2" />
  <g
     inkscape:groupmode="layer"
     id="layer10"
     inkscape:label="Layer 10"
     style="display:none">
    <rect
       style="display:inline;fill:#ffffff;fill-opacity:1;stroke:none;stroke-width:0.136719;stroke-miterlimit:4;stroke-dasharray:none;stroke-opacity:1"
       id="rect41207"
       width="24.089886"
       height="24.089893"
       x="188.7144"
       y="-62.548138"
       transform="rotate(45)" />
    <rect
       style="display:inline;fill:#ffffff;fill-opacity:1;stroke:none;stroke-width:0.136719;stroke-miterlimit:4;stroke-dasharray:none;stroke-opacity:1"
       id="rect41207-4"
       width="24.089886"
       height="24.089893"
       x="38.882481"
       y="-212.80429"
       transform="rotate(135)" />
    <rect
       style="display:inline;fill:#ffffff;fill-opacity:1;stroke:none;stroke-width:0.136719;stroke-miterlimit:4;stroke-dasharray:none;stroke-opacity:1"
       id="rect41207-4-0"
       width="24.089886"
       height="24.089893"
       x="-111.37369"
       y="-62.972359"
       transform="rotate(-135)" />
    <rect
       style="display:inline;fill:#ffffff;fill-opacity:1;stroke:none;stroke-width:0.136719;stroke-miterlimit:4;stroke-dasharray:none;stroke-opacity:1"
       id="rect41207-4-3"
       width="24.089886"
       height="24.089893"
       x="38.458241"
       y="87.283768"
       transform="rotate(-45)" />
  </g>
  <g
     inkscape:groupmode="layer"
     id="layer9"
     inkscape:label="Layer 9"
     style="display:inline">
    <g
       id="g51714"
       inkscape:export-filename="/home/snakebite/Documents/alinanana_alt_colorful_strong.png"
       inkscape:export-xdpi="96"
       inkscape:export-ydpi="96"
       style="fill:#1a1a1a">
      <path
         id="rect20843"
         style="display:inline;fill:#1a1a1a;fill-opacity:1;stroke:none;stroke-width:5.48081"
         d="M 348.96484 117.57031 L 336.04883 130.48633 L 387.51367 181.94922 L 180.81641 388.64648 L 129.35352 337.18359 L 116.4375 350.09961 L 167.89844 401.56445 L 116.4375 453.0293 L 129.35352 465.94531 L 180.81641 414.48438 L 387.51367 621.17773 L 336.05078 672.64062 L 348.9668 685.55664 L 400.42969 634.09375 L 451.89648 685.55664 L 464.8125 672.64062 L 413.34766 621.17578 L 620.04297 414.48047 L 671.50781 465.94531 L 684.42383 453.0293 L 632.96094 401.56445 L 684.42383 350.09961 L 671.50781 337.18359 L 620.04297 388.64648 L 413.3457 181.94922 L 464.81055 130.48633 L 451.89453 117.57031 L 400.42969 169.0332 L 348.96484 117.57031 z M 400.42969 194.86914 L 607.125 401.56445 L 400.42969 608.25781 L 193.73633 401.56445 L 400.42969 194.86914 z "
         transform="scale(0.26458333)" />
      <path
         id="rect12293"
         style="display:inline;fill:#1a1a1a;fill-opacity:1;stroke:none;stroke-width:5.48081"
         d="M 400.42969 220.70703 L 219.57227 401.56445 L 400.42969 582.42188 L 581.28711 401.56445 L 400.42969 220.70703 z M 400.42969 246.54297 L 555.45117 401.56445 L 400.42969 556.58398 L 245.41016 401.56445 L 400.42969 246.54297 z "
         transform="scale(0.26458333)" />
      <path
         id="rect1342"
         style="display:inline;fill:#1a1a1a;fill-opacity:1;stroke:none;stroke-width:5.48081"
         d="M 400.42969 272.38086 L 271.24609 401.56445 L 400.42969 530.74805 L 529.61328 401.56445 L 400.42969 272.38086 z M 400.42969 298.2168 L 503.77734 401.56445 L 400.42969 504.91016 L 297.08398 401.56445 L 400.42969 298.2168 z "
         transform="scale(0.26458333)" />
      <path
         id="rect38"
         style="fill:#1a1a1a;stroke:none;stroke-width:5.48084"
         d="M 400.42969 324.05469 L 322.91992 401.56445 L 400.42969 479.07422 L 477.94141 401.56445 L 400.42969 324.05469 z M 400.42969 349.89062 L 452.10352 401.56445 L 400.42969 453.23828 L 348.75586 401.56445 L 400.42969 349.89062 z "
         transform="scale(0.26458333)" />
      <rect
         style="fill:#1a1a1a;stroke:none;stroke-width:1.45013"
         id="rect31"
         width="9.6675186"
         height="9.6675186"
         x="145.21025"
         y="-4.6216617"
         transform="rotate(45.000001)" />
      <path
         style="color:#000000;fill:#1a1a1a;fill-opacity:1;stroke-width:1.45013;-inkscape-stroke:none"
         d="m 187.92314,99.466669 -3.41814,-3.418134 -10.19785,10.198585 10.19785,10.19856 3.41814,-3.41812 -6.78045,-6.78044 z"
         id="path41332" />
      <path
         style="color:#000000;fill:#1a1a1a;fill-opacity:1;stroke-width:1.45013;-inkscape-stroke:none"
         d="m 194.70359,106.24712 -3.36232,-3.36233 -3.36231,3.36233 3.36231,3.36231 z"
         id="rect20843-2" />
      <path
         style="color:#000000;fill:#1a1a1a;fill-opacity:1;stroke-width:1.45013;-inkscape-stroke:none"
         d="m 112.72764,188.22309 3.41813,-3.41814 -10.19857,-10.19785 -10.198577,10.19785 3.418125,3.41814 6.780442,-6.78045 z"
         id="path41332-8" />
      <path
         style="color:#000000;fill:#1a1a1a;fill-opacity:1;stroke-width:1.45013;-inkscape-stroke:none"
         d="m 105.9472,195.00353 3.36231,-3.36231 -3.36231,-3.36232 -3.36232,3.36232 z"
         id="rect20843-2-0" />
      <path
         style="color:#000000;fill:#1a1a1a;fill-opacity:1;stroke-width:1.45013;-inkscape-stroke:none"
         d="m 23.971202,113.02756 3.418135,3.41814 10.197858,-10.19858 -10.197858,-10.198571 -3.418125,3.41812 6.780439,6.780451 z"
         id="path41332-8-4" />
      <path
         style="color:#000000;fill:#1a1a1a;fill-opacity:1;stroke-width:1.45013;-inkscape-stroke:none"
         d="m 17.190761,106.24712 3.362315,3.36232 3.362315,-3.36232 -3.362315,-3.36232 z"
         id="rect20843-2-0-0" />
      <path
         style="color:#000000;fill:#1a1a1a;fill-opacity:1;stroke-width:1.45013;-inkscape-stroke:none"
         d="m 99.166715,24.271158 -3.418135,3.418135 10.19858,10.197856 10.19857,-10.197856 -3.41813,-3.418135 -6.78043,6.780446 z"
         id="path41332-8-9" />
      <path
         style="color:#000000;fill:#1a1a1a;fill-opacity:1;stroke-width:1.45013;-inkscape-stroke:none"
         d="m 105.94716,17.490712 -3.36232,3.362312 3.36232,3.362312 3.36231,-3.362312 z"
         id="rect20843-2-0-8" />
    </g>
  </g>
</svg>
