<?xml version="1.0" encoding="UTF-8" standalone="no"?>
<!-- Created with Inkscape (http://www.inkscape.org/) -->

<svg
   width="210mm"
   height="210mm"
   viewBox="0 0 210 210"
   version="1.1"
   id="svg5"
   inkscape:version="1.1.1 (3bf5ae0d25, 2021-09-20)"
   sodipodi:docname="earth.svg"
   inkscape:export-filename="/home/snakebite/Documents/alinanana_alt_colorful_strong.png"
   inkscape:export-xdpi="96"
   inkscape:export-ydpi="96"
   xmlns:inkscape="http://www.inkscape.org/namespaces/inkscape"
   xmlns:sodipodi="http://sodipodi.sourceforge.net/DTD/sodipodi-0.dtd"
   xmlns="http://www.w3.org/2000/svg"
   xmlns:svg="http://www.w3.org/2000/svg">
  <sodipodi:namedview
     id="namedview7"
     pagecolor="#404040"
     bordercolor="#ffffff"
     borderopacity="1"
     inkscape:pageshadow="0"
     inkscape:pageopacity="0"
     inkscape:pagecheckerboard="false"
     inkscape:document-units="mm"
     showgrid="false"
     inkscape:zoom="0.70710678"
     inkscape:cx="395.27269"
     inkscape:cy="359.21025"
     inkscape:window-width="1364"
     inkscape:window-height="766"
     inkscape:window-x="0"
     inkscape:window-y="0"
     inkscape:window-maximized="1"
     inkscape:current-layer="layer9"
     showguides="false"
     height="296mm"
     showborder="true"
     inkscape:showpageshadow="true">
    <inkscape:grid
       type="xygrid"
       id="grid28304" />
  </sodipodi:namedview>
  <defs
     id="defs2" />
  <g
     inkscape:groupmode="layer"
     id="layer10"
     inkscape:label="Layer 10"
     style="display:none">
    <rect
       style="display:inline;fill:#ffffff;fill-opacity:1;stroke:none;stroke-width:0.136719;stroke-miterlimit:4;stroke-dasharray:none;stroke-opacity:1"
       id="rect41207"
       width="24.089886"
       height="24.089893"
       x="188.7144"
       y="-62.548138"
       transform="rotate(45)" />
    <rect
       style="display:inline;fill:#ffffff;fill-opacity:1;stroke:none;stroke-width:0.136719;stroke-miterlimit:4;stroke-dasharray:none;stroke-opacity:1"
       id="rect41207-4"
       width="24.089886"
       height="24.089893"
       x="38.882481"
       y="-212.80429"
       transform="rotate(135)" />
    <rect
       style="display:inline;fill:#ffffff;fill-opacity:1;stroke:none;stroke-width:0.136719;stroke-miterlimit:4;stroke-dasharray:none;stroke-opacity:1"
       id="rect41207-4-0"
       width="24.089886"
       height="24.089893"
       x="-111.37369"
       y="-62.972359"
       transform="rotate(-135)" />
    <rect
       style="display:inline;fill:#ffffff;fill-opacity:1;stroke:none;stroke-width:0.136719;stroke-miterlimit:4;stroke-dasharray:none;stroke-opacity:1"
       id="rect41207-4-3"
       width="24.089886"
       height="24.089893"
       x="38.458241"
       y="87.283768"
       transform="rotate(-45)" />
  </g>
  <g
     inkscape:groupmode="layer"
     id="layer9"
     inkscape:label="Layer 9"
     style="display:inline">
    <path
       id="rect20843"
       style="display:inline;fill:#008585;fill-opacity:1;stroke:none;stroke-width:1.45013"
       d="M 92.330279,31.107144 88.912918,34.524508 102.52966,48.140731 47.841008,102.82938 34.224785,89.213157 30.807421,92.630521 44.423128,106.24726 30.807421,119.864 l 3.417364,3.41736 13.616223,-13.6157 54.688652,54.68761 -13.616226,13.61623 3.417364,3.41736 13.616222,-13.61622 13.61726,13.61622 3.41736,-3.41736 -13.61674,-13.61674 54.68813,-54.68814 13.61674,13.61674 3.41737,-3.41736 -13.61623,-13.61674 13.61623,-13.616739 -3.41737,-3.417364 -13.61674,13.616223 -54.68865,-54.688649 13.61674,-13.616223 -3.41736,-3.417364 -13.61674,13.616223 z m 13.616741,20.451982 54.68813,54.688134 -54.68813,54.68762 -54.687617,-54.68762 z" />
    <path
       id="rect12293"
       style="display:inline;fill:#74a892;fill-opacity:1;stroke:none;stroke-width:1.45013"
       d="m 105.94702,58.395401 -47.851858,47.851859 47.851858,47.85186 47.85186,-47.85186 z m 0,6.835759 41.0161,41.0161 -41.0161,41.01558 -41.015583,-41.01558 z" />
    <path
       id="rect1342"
       style="display:inline;fill:#fbf2c4;fill-opacity:1;stroke:none;stroke-width:1.45013"
       d="m 105.94702,72.067435 -34.179826,34.179825 34.179826,34.17983 34.17983,-34.17983 z m 0,6.835759 27.34407,27.344066 -27.34407,27.34355 -27.343551,-27.34355 z" />
    <path
       id="rect38"
       style="fill:#e5c185;stroke:none;stroke-width:1.45014;fill-opacity:1"
       d="m 105.94702,85.739469 -20.507792,20.507791 20.507792,20.50779 20.50831,-20.50779 z m 0,6.835756 13.67203,13.672035 -13.67203,13.67203 -13.672033,-13.67203 z" />
    <rect
       style="fill:#c7522a;stroke:none;stroke-width:1.45013;fill-opacity:1"
       id="rect31"
       width="9.6675186"
       height="9.6675186"
       x="145.21025"
       y="-4.6216617"
       transform="rotate(45.000001)" />
    <path
       style="color:#000000;fill:#74a892;fill-opacity:1;stroke-width:1.45013;-inkscape-stroke:none"
       d="m 187.92314,99.466669 -3.41814,-3.418134 -10.19785,10.198585 10.19785,10.19856 3.41814,-3.41812 -6.78045,-6.78044 z"
       id="path41332" />
    <path
       style="color:#000000;fill:#fbf2c4;fill-opacity:1;stroke-width:1.45013;-inkscape-stroke:none"
       d="m 194.70359,106.24712 -3.36232,-3.36233 -3.36231,3.36233 3.36231,3.36231 z"
       id="rect20843-2" />
    <path
       style="color:#000000;fill:#74a892;fill-opacity:1;stroke-width:1.45013;-inkscape-stroke:none"
       d="m 112.72764,188.22309 3.41813,-3.41814 -10.19857,-10.19785 -10.198577,10.19785 3.418125,3.41814 6.780442,-6.78045 z"
       id="path41332-8" />
    <path
       style="color:#000000;fill:#fbf2c4;fill-opacity:1;stroke-width:1.45013;-inkscape-stroke:none"
       d="m 105.9472,195.00353 3.36231,-3.36231 -3.36231,-3.36232 -3.36232,3.36232 z"
       id="rect20843-2-0" />
    <path
       style="color:#000000;fill:#74a892;fill-opacity:1;stroke-width:1.45013;-inkscape-stroke:none"
       d="m 23.971202,113.02756 3.418135,3.41814 10.197858,-10.19858 -10.197858,-10.198571 -3.418125,3.41812 6.780439,6.780451 z"
       id="path41332-8-4" />
    <path
       style="color:#000000;fill:#fbf2c4;fill-opacity:1;stroke-width:1.45013;-inkscape-stroke:none"
       d="m 17.190761,106.24712 3.362315,3.36232 3.362315,-3.36232 -3.362315,-3.36232 z"
       id="rect20843-2-0-0" />
    <path
       style="color:#000000;fill:#74a892;fill-opacity:1;stroke-width:1.45013;-inkscape-stroke:none"
       d="m 99.166715,24.271158 -3.418135,3.418135 10.19858,10.197856 10.19857,-10.197856 -3.41813,-3.418135 -6.78043,6.780446 z"
       id="path41332-8-9" />
    <path
       style="color:#000000;fill:#fbf2c4;fill-opacity:1;stroke-width:1.45013;-inkscape-stroke:none"
       d="m 105.94716,17.490712 -3.36232,3.362312 3.36232,3.362312 3.36231,-3.362312 z"
       id="rect20843-2-0-8" />
  </g>
</svg>
